PathFileType	4	(X/Y/Z)	7_2_9_p0_0-450.trc
DataRate	CameraRate	NumFrames	NumMarkers	Units	OrigDataRate	OrigDataStartFrame	OrigNumFrames
59.0	59.0	5	27	m	59.0	56	451
Frame#	Time	RHip			RKnee			RAnkle			RBigToe			RSmallToe			RHeel			LHip			LKnee			LAnkle			LBigToe			LSmallToe			LHeel			Neck			Head			Nose			RShoulder			RElbow			RWrist			RThumb			RIndex			RPinky			LShoulder			LElbow			LWrist			LThumb			LIndex			LPinky			
		X1	Y1	Z1	X2	Y2	Z2	X3	Y3	Z3	X4	Y4	Z4	X5	Y5	Z5	X6	Y6	Z6	X7	Y7	Z7	X8	Y8	Z8	X9	Y9	Z9	X10	Y10	Z10	X11	Y11	Z11	X12	Y12	Z12	X13	Y13	Z13	X14	Y14	Z14	X15	Y15	Z15	X16	Y16	Z16	X17	Y17	Z17	X18	Y18	Z18	X19	Y19	Z19	X20	Y20	Z20	X21	Y21	Z21	X22	Y22	Z22	X23	Y23	Z23	X24	Y24	Z24	X25	Y25	Z25	X26	Y26	Z26	X27	Y27	Z27	
56	0.9491525423728814	0.301527893049549	0.3327820615646345	1.2226828677831432	0.31868705695502275	0.3029824670146381	1.6100130936715855	0.2804623647135874	0.31924721132582967	2.0305015947581944	0.26285495929222036	0.110890865361475	2.0061526063418578	0.3322204113034244	0.16578305596157247	2.0370996206583136	0.26102914078895356	0.33439986057740806	2.1021010534890245	0.10217025015692434	0.38090123647946295	1.2475906993723804	0.10042931109108508	0.30065100219834207	1.611241051659461	0.13157516393158356	0.32093474383688425	2.050824288572835	0.10940258038359692	0.0986992335679281	2.0164391802195363	0.054337771465009996	0.15838905582956478	2.0094620402268357	0.14966443233690518	0.34627198283937266	2.096165709313596	0.2163034920286895	0.3604066252054493	0.635454872383465	0.23210186584944748	0.3829958142969042	0.3778848323265053	0.2172317916049368	0.2715400873046323	0.4984397022015876	0.3685070174449928	0.3624232088767864	0.721172243183002	0.3699279561749517	0.16793197189973985	0.8905088546771708	0.2464432211531667	0.18710837265079555	0.6863183324556105	0.19899848170218717	0.2662960724807047	0.6076472132899464	0.2095243637035521	0.21307444081116497	0.5687860591273197	0.20550210479932662	0.1440043667838906	0.6178944510849466	0.04060692519678009	0.39458420799833804	0.7071548789900592	-0.01378872593884158	0.437013338263035	0.9723113043474634	0.014327249790483077	0.34335030135266004	1.226965388147352	0.043367925552932014	0.22515840665845469	1.2676747109307829	0.03272382362991292	0.2143767944728586	1.2792771324279204	-0.008483062137121678	0.3275162468646618	1.3353161726754477
57	0.9661016949152542	0.302002988613857	0.3330008963453942	1.2189867542566653	0.3193774931924716	0.3029834933213004	1.6053819062775059	0.28159771835806147	0.3086348905897476	2.0270716261165607	0.26265943647559326	0.11095012600004873	2.005454547576266	0.33212280478234685	0.1661736705992112	2.036126600029012	0.2694520173166759	0.3475137505716941	2.109533050548315	0.10215079451864506	0.3808644341731598	1.2476187742192681	0.1004316201403753	0.30045412230252116	1.6113209827266768	0.1315405729981872	0.3209760657613031	2.0514002224304906	0.10237941975106751	0.09917354595845437	2.0162859989226574	0.05430108692893479	0.15859140579290207	2.0089346969524495	0.1505078824817863	0.346428532053835	2.1018919284233353	0.21323166605051108	0.34962758514525794	0.6400737208421875	0.23228545427099165	0.38304519802028675	0.38110767930131817	0.21714774217454466	0.2710505192551226	0.4985878299357211	0.36826596733905204	0.3619636461910709	0.7245563686703994	0.3738638324081718	0.1682327688571466	0.8942061714154007	0.23925816471686648	0.19643637787535073	0.6862382372322647	0.2025421278043163	0.25422799722590683	0.6087166494592937	0.20720881790678167	0.20326253819503204	0.5727361299985088	0.20556221926669455	0.14317333036931154	0.6212282199280333	0.040539748107852464	0.39409571632586676	0.7101657741095921	-0.011140460206043343	0.4477149103759127	0.9761266543217068	0.01850125588257375	0.3453676512555953	1.227620903565065	0.04293312309355424	0.2248737810193908	1.262996351110687	0.032694489019058734	0.21432934184649177	1.2792393024684494	-0.008416827389134398	0.32774812387573854	1.335277258330999
58	0.9830508474576272	0.3015137239306639	0.33268383110712946	1.2227128386430066	0.31867306397922446	0.3028019158877727	1.610220601008067	0.27704282540523967	0.3062874435032673	2.0261154670644723	0.26276267303295286	0.1107303031271155	2.0054569355459346	0.33206217381671627	0.16568616623666016	2.036339572269117	0.2683511211086101	0.3484675746169788	2.117027583208634	0.10218565160545859	0.3809841942123526	1.2477337437117637	0.10123246049295284	0.30102967668162584	1.6165160020927083	0.13152522624741614	0.3209441408676835	2.051542736159864	0.10605604275671203	0.08692273875866874	2.006301065850551	0.0494573801835734	0.15545010210035376	2.0072764734528072	0.15004188735841084	0.34571355294135964	2.1014108020553177	0.21324354105833124	0.34981525073401876	0.6404936164419139	0.23648851447847685	0.37100470376553296	0.3790975884617283	0.21721928348474134	0.2713289309581399	0.4988205945539781	0.3682509641721876	0.36190132642996353	0.7249080703269535	0.3699195092264723	0.16650338473511497	0.8970778482947173	0.24245266002869034	0.1847210150851379	0.6862627984196685	0.20240131163792469	0.2514505655631614	0.6175542670816807	0.2108384827832775	0.1915925434992055	0.5704337952716698	0.20617716753686588	0.12459537024731822	0.6170765762050929	0.040760668788472794	0.39429963192352907	0.7103426832537941	-0.011259478778743899	0.44736147588512404	0.9760142886844494	0.00930603522903734	0.35578150665920416	1.2328669023508647	0.04297559422550267	0.22567811665774137	1.2621436325470778	0.03272491230056498	0.21439177951320276	1.2793566630315796	-0.008473887772734067	0.32755514682937165	1.335041633614997
59	1.0	0.301530383095543	0.33255946521575663	1.2225894633848204	0.3148078177484224	0.2920029097353547	1.6045649525189354	0.2816128582452771	0.3085806458559863	2.0273561759763954	0.263867085537084	0.11093045300419904	2.001156847471752	0.3320786595434362	0.16579418373566548	2.0363897274247678	0.2694173732317134	0.3483059155547564	2.1123752433838603	0.10223853319361577	0.3809276336818358	1.247620735917864	0.09699516387541718	0.29831273476100995	1.6156228971905606	0.13149570125873805	0.32091363926434036	2.051657055354103	0.10602771328824778	0.08686456198771851	2.006282255199107	0.04951608184710927	0.15546732944544747	2.0071833209191574	0.1499616895316613	0.34565393167458597	2.102068848507574	0.21340468738450033	0.34976938188969875	0.6406097106241537	0.2408284225959259	0.3718390058275475	0.38585320284507113	0.21335673033891223	0.2826083704580356	0.504253180812415	0.36825377449951713	0.36179751240273894	0.7248870811879148	0.36673171675570243	0.17772451071006917	0.9013528858671785	0.24263894067883418	0.18338974318549237	0.6893086679447459	0.19982458016769633	0.242416151380153	0.618100217516439	0.21088474559180825	0.19160632957450682	0.5705759923308549	0.20550571535509757	0.14294966925267497	0.6209487530115971	0.04105513852300225	0.39442337954295487	0.7103489798618896	-0.010846119149374087	0.4479727611942097	0.980109144376954	0.00932545524024156	0.3559473629959579	1.23303291368748	0.0430232980436898	0.22613344320203382	1.2616201902617235	0.03274375074312362	0.21443717191451706	1.2794281596100168	-0.00844945870751803	0.32753525078549	1.3351544560304274
60	1.0169491525423728	0.30222090720262845	0.33303960569446517	1.2272946069621036	0.3140321549986611	0.2917987128973882	1.6094360102532514	0.2775336965612379	0.30883646369777057	2.027996462942481	0.2598212251383157	0.10057001389933168	1.9915719232985916	0.3209758560349064	0.13727195068132347	2.013482642056265	0.2646345968576813	0.3478193598171555	2.12079810097049	0.10225510467397599	0.38122565345524	1.2557171407953627	0.09697836904837205	0.2982062887590324	1.616038051709606	0.13145060741511824	0.32108859188565375	2.0515388354146866	0.10552459156428365	0.08586635187510241	2.005666830891684	0.05424504292001706	0.15786178680531582	2.009261232488241	0.1437314400951443	0.35954394673206097	2.1175813093322704	0.21368428453102198	0.34885540416572375	0.643848033869856	0.2444790275957068	0.37501178478777064	0.3821821477076502	0.21752691126177673	0.27005330244195946	0.5086755454100121	0.3677095057160853	0.36155640640838466	0.7208947439818513	0.3703067742246477	0.1654300239214073	0.9002558940707865	0.24277195756770606	0.18255003922728055	0.6956223496098485	0.19976424073846144	0.24309115625283215	0.6129717857433705	0.211271628133545	0.19050208966168203	0.5767457397316672	0.20241559615367188	0.1227535882601478	0.6187906019142361	0.04475573613887625	0.39593844716903637	0.7106087446109542	-0.015808947909032766	0.4613838464193301	0.9850173517033587	0.013478849667327911	0.35786535175929535	1.2333408891486948	0.04550950095209369	0.23738762450978737	1.2655519192879627	0.0329169561272267	0.21483455068831694	1.2797322728609504	-0.011263873437674836	0.31663694677689325	1.3301127136233228
